<svg xmlns="http://www.w3.org/2000/svg"
shape-rendering="geometricPrecision"
width="4000" height="4000" viewBox="0 0 705 705">
  <metadata>null</metadata>

<path d="
M 31.941 349.1
C 33.193 341.04 40.692 335.505 48.849 337.549
C 51.194 338.137 52.952 339.596 54.855 340.976
C 56.17 337.41 56.696 333.243 57.647 329.535
C 60.128 319.862 62.641 310.198 64.932 300.478
C 65.785 296.859 66.702 293.262 67.482 289.626
C 67.877 287.784 68.047 285.548 69.161 283.987
C 71.343 282.264 73.67 283.779 74.123 286.199
C 75.431 293.189 76.239 300.293 77.432 307.307
C 80.379 324.635 82.621 342.104 85.225 359.487
C 86.699 369.326 88.556 379.106 90.054 388.93
C 90.069 389.103 90.001 389.518 90.155 389.44
C 90.391 389.322 90.53 388.355 90.56 388.143
C 90.733 386.934 90.884 385.735 91.178 384.547
C 92.017 381.163 93.195 377.845 94.125 374.482
C 96.123 367.258 98.058 360.021 100.013 352.787
C 100.548 350.806 101.066 348.805 101.527 346.805
C 101.783 345.696 101.852 344.386 102.498 343.43
C 105.193 341.784 107.432 344.82 109.055 346.589
C 112.459 350.301 115.986 353.91 119.782 357.225
C 121.034 358.319 122.092 359.712 123.482 360.635
C 124.649 360.393 126.196 358.844 127.197 358.151
C 130.467 355.886 133.602 353.383 136.911 351.182
C 143.121 347.052 149.023 342.406 155.012 337.968
C 160.432 333.952 166.633 330.292 170.193 324.35
C 174.836 316.598 174.318 306.02 166.232 300.729
C 160.098 296.716 151.188 298.338 146.159 303.49
C 144.075 305.624 142.817 311.232 139.213 310.622
C 137.817 309.846 137.077 307.957 136.253 306.65
C 135.106 304.831 133.704 303.181 131.971 301.897
C 123.772 295.82 111.491 299.378 108.419 309.353
C 105.599 318.511 111.821 326.815 118.121 332.749
C 120.355 334.852 123.402 336.9 125.132 339.437
C 126.807 341.892 125.086 345.835 121.791 344.384
C 118.915 343.117 116.389 339.555 114.207 337.356
C 106.655 329.743 99.434 320.477 102.163 308.976
C 105.146 296.401 118.225 289.368 130.427 293.604
C 134.489 295.014 137.126 297.697 140.147 300.574
C 146.412 292.487 158.818 289.623 167.946 294.245
C 174.803 297.716 179.172 305.014 179.594 312.622
C 180.452 328.092 167.013 336.996 156.005 344.952
C 150.496 348.934 145.092 353.063 139.488 356.916
C 135.778 359.467 132.116 362.093 128.436 364.688
C 126.903 365.769 124.95 367.786 122.934 367.79
C 121.096 367.794 119.173 365.222 117.957 364.068
C 114.186 360.49 110.428 356.419 106.29 353.292
C 105.689 357.216 104.176 361.071 103.168 364.914
C 100.74 374.174 98.191 383.479 95.425 392.644
C 94.516 395.657 93.662 398.692 92.821 401.724
C 92.418 403.181 92.098 405.135 90.805 406.079
C 89.512 406.365 87.994 406.514 86.86 405.73
C 85.742 404.392 85.761 401.996 85.451 400.329
C 84.683 396.193 84.147 392.015 83.36 387.881
C 80.153 371.042 77.981 353.886 75.516 336.919
C 74.479 329.779 73.223 322.676 72.18 315.537
C 71.789 312.856 71.252 310.18 70.892 307.503
C 70.831 307.054 70.832 305.021 70.41 304.898
C 70.078 304.802 70.276 305.577 70.209 305.916
C 66.376 319.378 63.584 333.166 59.422 346.515
C 59.03 347.774 59.449 349.386 59.377 350.701
C 59.23 353.411 58.357 355.855 56.748 358.05
C 48.836 368.845 30.802 362.797 31.941 349.1 Z
M 38.352 348.046
C 35.994 355.556 46.354 361.791 51.32 355.238
C 51.99 354.354 52.582 353.361 52.891 352.29
C 55.453 343.389 41.21 338.944 38.352 348.046 Z"
opacity="1" fill="rgb(71,123,131)" fill-rule="evenodd" />
<path d="
M 154.22 350.283
C 157.534 348.525 162.856 349.372 166.502 349.356
C 175.836 349.315 185.17 349.262 194.504 349.264
C 196.599 349.264 199.723 348.723 201.631 349.714
C 203.476 350.672 204.063 352.871 202.607 354.448
C 201.524 355.619 199.877 355.556 198.396 355.554
C 195.931 355.551 193.466 355.552 191.001 355.555
C 181.668 355.566 172.335 355.525 163.002 355.539
C 160.051 355.543 154.949 356.463 154.29 352.558
C 154.16 351.788 154.16 351.06 154.22 350.283 Z"
opacity="1" fill="rgb(84,109,119)" fill-rule="evenodd" />
<path d="
M 216.501 360.617
C 216.557 357.839 218.756 354.441 221.977 356.396
C 223.398 357.259 223.32 359.352 223.731 360.769
C 224.557 363.613 225.807 366.221 227.862 368.39
C 236.404 377.405 254.885 377.721 262.004 366.625
C 266.714 359.285 263.22 350.694 255.473 347.404
C 250.89 345.457 245.93 345.139 241.123 344.05
C 233.343 342.29 225.948 339.225 221.499 332.24
C 220.38 330.483 219.484 328.496 219.076 326.443
C 218.585 323.968 218.602 321.365 218.964 318.873
C 221.776 299.485 247.19 294.507 260.905 305.56
C 264.781 308.683 268.366 313.568 269.313 318.538
C 269.889 321.562 268.532 325.595 264.583 324.029
C 262.638 323.257 262.331 320.597 261.699 318.889
C 260.725 316.256 258.988 313.74 256.968 311.791
C 247.596 302.751 227.811 306.027 225.937 320.465
C 224.887 328.551 231.272 333.757 238.282 335.868
C 249.682 339.303 265.84 339.023 270.349 352.685
C 270.956 354.523 271.297 356.512 271.362 358.446
C 271.444 360.852 271.15 363.373 270.325 365.646
C 264.503 381.678 244.099 386.217 229.965 378.904
C 223.663 375.644 216.348 368.313 216.501 360.617 Z"
opacity="1" fill="rgb(55,150,154)" fill-rule="evenodd" />
<path d="
M 218.219 399.342
C 223.904 399.491 229.585 399.497 235.27 399.672
C 235.606 400.1 235.458 400.785 235.343 401.292
C 232.952 401.613 230.292 401.326 227.883 401.286
C 227.532 407.434 228.067 413.617 227.795 419.761
C 227.24 419.93 226.605 419.866 226.024 419.886
C 225.186 419.207 225.746 416.101 225.741 415.032
C 225.719 410.594 226.317 405.724 225.505 401.356
C 223.157 401.043 218.523 402.341 218.219 399.342 Z"
opacity="1" fill="rgb(77,87,100)" fill-rule="evenodd" />
<path d="
M 236.956 406.096
C 237.081 405.651 237.181 405.21 237.32 404.769
C 238.967 404.274 238.714 405.992 238.997 407.266
C 239.832 407.29 240.358 406.409 240.943 405.917
C 241.827 405.173 243.086 404.664 244.246 404.803
C 244.365 405.388 244.382 405.798 244.228 406.383
C 242.299 407.361 240.476 407.865 238.893 409.492
C 237.764 412.516 239.189 416.529 238.854 419.696
C 238.303 419.792 237.834 419.706 237.282 419.688
C 236.529 418.578 236.821 416.784 236.801 415.495
C 236.753 412.417 236.548 409.151 236.956 406.096 Z"
opacity="1" fill="rgb(83,89,103)" fill-rule="evenodd" />
<path d="
M 246.947 409.583
C 248.196 405.627 252.492 403.746 256.392 405.004
C 257.245 405.278 258.044 405.786 258.74 406.339
C 258.952 406.507 259.813 407.515 260.009 407.393
C 260.28 406.491 260.098 404.775 261.533 405.247
C 262.198 406.458 261.826 408.155 261.899 409.499
C 262.084 412.905 261.756 416.334 262.175 419.717
C 260.744 419.996 259.706 419.305 259.988 417.672
C 258.159 418.289 257.145 420.148 255.006 420.4
C 248.604 421.155 245.845 415.016 246.947 409.583 Z
M 248.901 410.054
C 248.124 412.525 248.571 415.75 250.579 417.505
C 253.59 420.137 258.413 418.464 259.611 414.832
C 260.304 412.73 260.108 409.733 258.502 408.094
C 255.681 405.216 250.196 405.932 248.901 410.054 Z"
opacity="0.996" fill="rgb(82,91,106)" fill-rule="evenodd" />
<path d="
M 265.903 410.575
C 267.106 406.752 270.575 404.127 274.715 404.756
C 276.812 405.074 278.555 406.383 279.792 408.052
C 280.199 408.601 280.939 409.924 280.011 410.299
C 278.742 410.351 278.329 408.702 277.561 407.929
C 276.128 406.486 273.907 405.963 271.943 406.427
C 266.702 407.665 266.22 416.752 271.406 418.386
C 273.184 418.946 275.627 418.73 277.122 417.551
C 278.154 416.737 278.704 415.566 279.831 414.849
C 280.595 414.877 280.301 414.751 280.765 415.07
C 280.264 420.045 273.272 421.041 269.626 419.439
C 266.173 417.922 265.272 413.985 265.903 410.575 Z"
opacity="1" fill="rgb(76,89,98)" fill-rule="evenodd" />
<path d="
M 279.473 351.604
C 280.13 347.025 281.025 342.564 283.431 338.516
C 290.242 327.058 304.666 321.216 317.32 325.929
C 322.088 327.705 325.129 330.902 328.667 334.357
C 328.978 333.987 328.738 332.602 328.763 332.105
C 328.856 330.249 328.594 328.229 329.48 326.53
C 331.113 324.545 335.129 324.384 336.09 327.234
C 337.01 329.965 336.203 334.126 336.18 336.997
C 336.105 346.665 335.893 356.327 335.865 366.001
C 335.856 369.001 335.85 372.001 335.825 375.001
C 335.812 376.614 336.013 378.4 335.513 379.958
C 334.659 382.62 330.921 381.977 329.552 380.228
C 327.938 378.168 328.358 375.492 328.242 373.054
C 326.561 374.455 325.054 376.081 323.242 377.325
C 318.56 380.542 313.194 382.262 307.508 382.406
C 291.4 382.814 277.871 367.367 279.473 351.604 Z
M 286.876 349.076
C 286.266 352.07 286.459 355.262 287.029 358.244
C 287.508 360.747 288.419 363.274 289.789 365.433
C 297.926 378.263 317.494 378.279 325.672 365.541
C 326.985 363.495 327.916 361.274 328.393 358.886
C 330.479 348.428 325.686 336.874 315.385 332.726
C 303.141 327.796 289.409 336.631 286.876 349.076 Z"
opacity="1" fill="rgb(54,150,153)" fill-rule="evenodd" />
<path d="
M 284.531 401.113
C 284.482 400.036 285.742 399.959 286.441 400.46
C 286.186 404.672 286.752 408.966 286.354 413.161
C 286.412 413.693 288.307 410.943 288.696 410.545
C 290.489 408.707 293.62 404.362 296.535 404.827
C 296.327 405.878 295.526 406.431 294.787 407.155
C 293.309 408.604 291.852 410.17 290.262 411.493
C 291.912 413.698 293.669 415.812 295.549 417.827
C 296.064 418.378 297.558 419.393 297.292 420.221
C 293.761 421.053 291.338 414.912 288.991 413.131
C 287.939 413.833 287.203 414.569 286.648 415.715
C 286.357 417.092 286.578 418.622 286.109 419.95
C 285.562 420.147 285.018 420.028 284.461 420.129
C 283.695 418.076 284.423 415.072 284.569 412.917
C 284.833 409.037 284.813 404.986 284.531 401.113 Z"
opacity="1" fill="rgb(72,86,95)" fill-rule="evenodd" />
<path d="
M 300.969 418.081
C 301.051 417.828 301.132 417.575 301.214 417.321
C 302.656 417.222 303.735 418.201 303.286 419.753
C 302.564 419.979 301.917 420.059 301.16 420.063
C 300.955 419.36 300.886 418.812 300.969 418.081 Z"
opacity="1" fill="rgb(77,89,98)" fill-rule="evenodd" />
<path d="
M 314.926 406.581
C 316.992 400.969 322.06 398.359 327.926 399.569
C 330.205 400.039 332.608 401.53 333.935 403.452
C 334.368 404.079 335.117 404.917 334.74 405.71
C 332.448 406.425 331.83 403.331 329.987 402.262
C 327.523 400.832 324.178 400.574 321.504 401.584
C 313.857 404.472 315.927 416.718 323.256 418.485
C 326.006 419.149 329.028 418.675 331.134 416.675
C 332.486 415.392 333.022 413.411 335.104 413.259
C 335.297 414.241 334.53 415.273 333.977 416.032
C 332.32 418.31 329.75 419.898 326.964 420.358
C 319.014 421.672 313.142 414.143 314.926 406.581 Z"
opacity="1" fill="rgb(68,85,99)" fill-rule="evenodd" />
<path d="
M 337.978 409.572
C 338.326 408.612 339.054 407.761 339.761 407.048
C 345.786 400.964 355.72 407.414 352.702 415.47
C 349.228 424.745 334.54 419.04 337.978 409.572 Z
M 339.467 410.587
C 337.277 418.137 349.05 422.18 351.222 414.513
C 353.464 406.596 341.847 402.384 339.467 410.587 Z"
opacity="1" fill="rgb(65,79,90)" fill-rule="evenodd" />
<path d="
M 349.433 328.096
C 350.09 324.626 354.001 323.871 356.258 326.486
C 357.458 327.876 356.838 330.816 356.903 332.495
C 357.988 331.94 358.682 330.394 359.716 329.621
C 362.929 327.217 366.487 325.459 370.429 324.633
C 381.593 322.294 393.782 328.134 398.547 338.566
C 400.722 343.328 400.642 348.29 400.651 353.411
C 400.664 360.272 400.648 367.134 400.626 373.996
C 400.619 376.337 401.285 379.934 398.864 381.333
C 397.002 382.408 394.741 381.45 393.831 379.575
C 392.696 377.237 393.533 372.982 393.542 370.419
C 393.554 366.943 393.542 363.467 393.537 359.991
C 393.53 355.035 394.228 349.543 393.124 344.678
C 391.837 339.006 387.062 333.646 381.436 331.987
C 378.506 331.123 375.403 331.034 372.398 331.535
C 370.38 331.872 368.486 332.547 366.678 333.501
C 353.703 340.348 356.724 356.266 356.724 368.5
C 356.724 371 356.723 373.5 356.708 376
C 356.701 377.272 356.924 378.83 356.318 380.002
C 354.802 382.929 350.562 382.476 349.523 379.407
C 348.997 377.85 349.379 375.624 349.382 373.995
C 349.389 370.162 349.398 366.328 349.394 362.495
C 349.388 357.995 349.378 353.495 349.389 348.995
C 349.407 342.071 349.001 335.002 349.433 328.096 Z"
opacity="1" fill="rgb(53,151,153)" fill-rule="evenodd" />
<path d="
M 356.842 405.52
C 357.686 404.779 357.241 404.92 358.073 404.849
C 358.468 405.41 358.407 406.604 358.537 407.281
C 358.63 407.78 360.929 405.395 361.355 405.165
C 363.215 404.158 366.089 404.462 367.843 405.566
C 371.969 408.163 370.92 415.579 370.719 419.77
C 370.16 419.824 369.594 419.804 369.033 419.848
C 368.427 419.191 368.761 417.536 368.771 416.673
C 368.802 414.08 369.283 410.813 367.966 408.462
C 365.984 404.923 360.516 405.928 359.04 409.483
C 357.827 412.404 359.069 416.73 358.877 419.825
C 358.272 419.802 357.662 419.813 357.057 419.837
C 356.474 418.836 356.835 416.874 356.828 415.73
C 356.806 412.424 356.293 408.776 356.842 405.52 Z"
opacity="1" fill="rgb(75,93,101)" fill-rule="evenodd" />
<path d="
M 375.342 405.387
C 375.441 405.291 375.54 405.196 375.639 405.101
C 377.462 405.093 377.126 405.659 377.477 407.052
C 378.669 406.48 379.127 405.08 380.481 404.7
C 381.216 404.494 382.234 404.431 383.003 404.461
C 390.691 404.754 389.242 414.571 389.288 419.739
C 388.729 419.801 388.173 419.735 387.612 419.77
C 387.018 419.183 387.291 417.215 387.287 416.407
C 387.276 413.772 387.759 410.022 386.12 407.758
C 383.798 404.55 379.388 406.109 377.769 409.121
C 377.17 410.234 377.256 411.409 377.26 412.632
C 377.268 414.938 377.056 417.443 377.343 419.728
C 376.666 419.715 375.999 419.712 375.327 419.617
C 375.002 414.931 375.2 410.08 375.342 405.387 Z"
opacity="1" fill="rgb(73,90,101)" fill-rule="evenodd" />
<path d="
M 392.989 410.085
C 394.164 407.52 395.531 405.37 398.502 404.733
C 402.964 403.778 408.951 407.48 408.319 412.62
C 405.923 412.548 403.421 412.88 401 412.882
C 398.797 412.884 396.461 412.607 394.367 413.423
C 395.832 417.175 399.543 420.599 403.714 418.094
C 405.476 417.036 406.069 415.445 408.146 414.777
C 408.235 415.424 407.783 416.006 407.458 416.535
C 402.319 423.786 390.576 419.094 392.989 410.085 Z
M 394.51 411.164
C 394.487 411.354 394.465 411.545 394.442 411.735
C 398.367 410.975 402.669 412.055 406.66 411.577
C 406.926 411.124 406.273 410.58 406.045 410.188
C 405.141 408.637 404.219 407.252 402.426 406.627
C 398.41 405.226 395.69 407.526 394.51 411.164 Z"
opacity="0.996" fill="rgb(65,90,103)" fill-rule="evenodd" />
<path d="
M 410.975 411.085
C 411.869 408.388 413.19 405.939 416.043 404.906
C 419.396 403.692 425.119 405.911 425.485 409.921
C 423.386 410.11 423.119 408.38 421.661 407.221
C 420.364 406.191 418.135 405.729 416.581 406.458
C 411.023 409.062 411.473 418.35 418.124 418.931
C 419.787 419.077 421.546 418.49 422.643 417.203
C 423.765 415.886 423.557 414.598 425.597 414.701
C 426.471 417.345 422.281 419.703 420.241 420.196
C 414.532 421.575 409.909 416.663 410.975 411.085 Z"
opacity="1" fill="rgb(62,77,93)" fill-rule="evenodd" />
<path d="
M 413.487 312.609
C 413.64 311.061 414.029 309.501 415.415 308.571
C 417.146 307.41 419.786 308.479 420.526 310.304
C 421.074 311.655 420.744 313.568 420.738 315.002
C 420.723 318.404 420.696 321.808 420.751 325.209
C 426.915 325.166 433.474 324.534 439.599 325.217
C 442.183 325.505 444.085 328.232 442.748 330.701
C 441.501 333.004 438.923 332.681 436.692 332.693
C 431.399 332.722 426.084 332.546 420.8 332.823
C 420.896 338.87 420.735 344.949 420.732 351.002
C 420.728 359.362 421.217 367.043 428.99 371.98
C 431.792 373.76 434.934 374.609 438.242 374.755
C 440.552 374.857 443.166 374.256 445.09 375.811
C 445.773 377.063 445.511 379.344 444.987 380.639
C 443.265 382.091 440.01 381.801 437.899 381.777
C 429.982 381.686 422.431 377.823 417.908 371.272
C 412.886 363.998 413.349 355.454 413.395 347.02
C 413.458 335.57 413.146 324.046 413.487 312.609 Z"
opacity="1" fill="rgb(56,150,154)" fill-rule="evenodd" />
<path d="
M 427.311 405.432
C 427.829 405.111 430.078 405.235 430.247 404.851
C 430.371 403.463 429.896 402.088 430.158 400.693
C 430.545 400.7 431.637 400.542 431.99 400.87
C 432.775 401.601 432.13 404.087 432.378 405.051
C 433.611 405.048 435.464 404.773 436.528 405.422
C 436.569 405.865 436.631 406.322 436.738 406.754
C 435.187 406.707 433.645 406.484 432.099 406.579
C 431.838 409.245 431.805 411.964 431.877 414.646
C 431.911 415.909 431.967 417.129 432.99 418.015
C 434.063 418.945 437.323 418.069 437.887 419.115
C 437.214 421.755 431.943 420.047 430.908 418.33
C 429.126 415.374 430.224 410.089 430.19 406.765
C 429.315 405.802 427.569 406.946 427.311 405.432 Z"
opacity="0.996" fill="rgb(67,87,104)" fill-rule="evenodd" />
<path d="
M 441.016 418.635
C 441.168 417.813 441.044 416.687 441.85 416.227
C 443.133 416.247 444.453 418.692 443.306 419.644
C 442.703 419.809 442.096 419.826 441.474 419.86
C 441.009 419.449 441.01 419.243 441.016 418.635 Z"
opacity="1" fill="rgb(67,73,94)" fill-rule="evenodd" />
<path d="
M 450.472 348.598
C 452.066 342.217 454.66 336.768 459.551 332.184
C 469.598 322.767 485.203 322.87 495.336 332.037
C 500.314 336.54 504.194 343.085 504.705 349.857
C 504.852 351.808 505.256 355.103 503.586 356.554
C 502.698 357.327 500.919 357.178 499.843 357.086
C 496.902 356.834 493.951 356.769 491 356.743
C 483.667 356.679 476.332 356.722 468.999 356.738
C 464.982 356.747 460.73 356.374 456.754 356.961
C 457.974 360.58 458.948 363.86 461.356 366.964
C 467.556 374.96 478.16 377.341 487.305 373.287
C 489.755 372.201 492.108 370.668 494.052 368.821
C 495.546 367.402 496.985 365.405 499.002 364.728
C 502.742 364.727 502.443 368.552 501.131 370.812
C 498.818 374.796 494.016 377.88 489.936 379.773
C 474.566 386.903 456.512 378.352 451.272 362.479
C 449.825 358.093 449.727 353.133 450.472 348.598 Z
M 457.421 348.058
C 457.304 348.604 457.189 349.15 457.063 349.694
C 462.836 350.032 468.717 349.787 474.502 349.792
C 482.112 349.8 489.76 349.964 497.366 349.751
C 496.488 337.682 482.593 329.208 471.514 332.936
C 464.396 335.332 459.846 341.239 457.421 348.058 Z"
opacity="1" fill="rgb(54,150,153)" fill-rule="evenodd" />
<path d="
M 452.91 399.864
C 456.889 399.464 461.014 399.737 465.01 399.793
C 466.373 399.813 468.499 399.718 468.189 401.643
C 466.195 401.196 462.985 400.945 461.088 401.723
C 460.955 406.145 460.946 410.57 460.952 415
C 460.954 416.342 461.515 418.898 460.869 420.063
C 460.304 420.086 459.738 420.089 459.175 420.138
C 458.522 418.574 458.958 416.252 458.962 414.568
C 458.974 410.397 458.482 405.839 459.013 401.722
C 457.308 401.601 455.566 401.851 453.874 401.538
C 452.906 401.358 452.272 400.822 452.91 399.864 Z"
opacity="1" fill="rgb(72,86,106)" fill-rule="evenodd" />
<path d="
M 466.816 314.521
C 467.466 312.644 469.761 310.952 471.145 309.599
C 473.358 307.436 475.686 305.41 477.949 303.302
C 479.524 301.835 481.102 299.945 482.948 298.82
C 484.496 297.877 486.717 298.653 487.62 300.159
C 488.794 302.115 487.143 304.085 485.833 305.417
C 482.967 308.33 479.894 311.063 476.966 313.913
C 475.383 315.454 473.75 317.582 471.649 318.427
C 469.283 319.378 465.821 317.397 466.816 314.521 Z"
opacity="1" fill="rgb(54,149,152)" fill-rule="evenodd" />
<path d="
M 471.416 400.084
C 471.416 399.828 471.416 399.572 471.416 399.316
C 471.647 399.324 472.912 399.217 473.135 399.613
C 473.404 400.091 473.286 401.285 473.282 401.833
C 473.27 403.604 473.339 405.368 473.351 407.134
C 473.446 407.612 475.914 405.595 476.543 405.38
C 478.603 404.675 481.215 405.115 482.935 406.435
C 485.794 408.629 485.064 413.077 485.13 416.303
C 485.148 417.171 485.607 419.11 485.166 419.871
C 485.091 419.999 483.749 419.916 483.542 419.929
C 483.321 418.966 483.392 417.988 483.399 417.007
C 483.421 413.411 483.865 405.013 477.784 406.432
C 477.042 406.605 476.283 406.971 475.649 407.385
C 474.771 407.959 473.941 408.634 473.285 409.453
C 472.948 412.836 473.357 416.466 473.348 419.87
C 472.743 419.857 472.133 419.893 471.535 419.816
C 471.049 417.15 471.402 414.21 471.405 411.504
C 471.408 407.734 471.061 403.835 471.416 400.084 Z"
opacity="1" fill="rgb(76,89,108)" fill-rule="evenodd" />
<path d="
M 489.819 405.341
C 491.802 405.33 491.169 405.871 491.601 407.483
C 491.793 407.78 491.77 407.977 492.159 407.714
C 493.53 406.785 494.091 405.021 496.001 405.09
C 496.961 405.124 497.951 405.086 497.736 406.304
C 495.28 406.703 493.397 407.431 491.779 409.482
C 491.269 411.754 491.706 414.658 491.769 416.994
C 491.794 417.913 492.116 419.167 491.74 420.022
C 491.259 420.032 490.78 420.02 490.3 420.011
C 489.458 419.433 489.779 417.446 489.781 416.495
C 489.788 412.865 489.272 408.922 489.819 405.341 Z"
opacity="1" fill="rgb(74,92,109)" fill-rule="evenodd" />
<path d="
M 501.352 399.373
C 502.834 399.542 503.698 400.228 503.348 401.809
C 501.616 402.184 500.701 401.159 501.352 399.373 Z"
opacity="1" fill="rgb(38,67,63)" fill-rule="evenodd" />
<path d="
M 501.279 405.384
C 501.697 405.142 503.037 404.615 503.265 405.496
C 503.581 406.72 503.256 408.498 503.279 409.777
C 503.337 413.08 503.545 416.527 503.273 419.817
C 502.698 419.949 502.043 419.927 501.452 419.97
C 500.653 415.237 501.733 410.176 501.279 405.384 Z"
opacity="1" fill="rgb(71,89,109)" fill-rule="evenodd" />
<path d="
M 507.018 404.943
C 507.222 404.99 507.426 405.037 507.631 405.084
C 509.701 406.974 510.765 410.964 511.871 413.503
C 512.459 414.852 513.453 416.221 513.766 417.655
C 514.396 418.43 515.34 415.194 515.553 414.686
C 516.688 411.978 517.76 409.242 518.885 406.531
C 519.246 405.661 520.146 403.855 521.286 405.1
C 521.052 407.033 519.787 409.085 519.021 410.867
C 517.725 413.879 516.7 417.01 515.143 419.902
C 514.531 420.28 513.914 420.338 513.215 420.21
C 512.188 419.525 511.656 417.653 511.172 416.544
C 510.019 413.901 508.806 411.325 507.766 408.632
C 507.388 407.653 506.168 405.589 507.018 404.943 Z"
opacity="1" fill="rgb(76,91,101)" fill-rule="evenodd" />
<path d="
M 516.489 305.103
C 516.652 303.798 517.219 302.413 518.495 301.837
C 520.314 301.016 523.137 302.201 523.631 304.182
C 524.068 305.933 523.667 308.188 523.671 309.999
C 523.682 314.332 523.706 318.665 523.702 322.998
C 523.689 336.496 523.673 349.995 523.604 363.494
C 523.578 368.506 523.944 373.666 523.57 378.661
C 523.434 380.482 522.106 381.95 520.23 382.131
C 518.621 382.287 516.881 381.191 516.529 379.546
C 515.533 374.89 516.433 369.22 516.434 364.464
C 516.435 351.307 516.57 338.151 516.573 324.995
C 516.574 320.494 516.556 315.994 516.538 311.493
C 516.529 309.387 516.227 307.199 516.489 305.103 Z"
opacity="1" fill="rgb(50,151,153)" fill-rule="evenodd" />
<path d="
M 522.954 411.096
C 523.356 409.708 523.687 408.444 524.663 407.32
C 527.917 403.569 534.021 403.963 537.117 407.676
C 538.655 409.52 538.412 411.067 538.729 413.266
C 537.613 413.545 536.182 413.015 535.045 412.907
C 533.022 412.716 530.952 412.914 528.921 412.841
C 527.699 412.798 525.677 412.472 524.931 413.588
C 526.123 417.542 530.094 420.451 534.204 418.097
C 535.912 417.119 536.328 415.251 538.233 414.841
C 538.519 415.472 537.892 416.493 537.538 417.01
C 536.468 418.572 534.874 419.551 533.037 419.925
C 527.092 421.137 522.696 417.21 522.954 411.096 Z
M 524.966 410.555
C 524.703 411.207 524.839 410.814 524.612 411.749
C 528.512 411.753 533.015 412.313 536.853 411.711
C 536.818 407.711 531.849 405.157 528.461 406.532
C 526.715 407.241 525.709 408.917 524.966 410.555 Z"
opacity="0.996" fill="rgb(65,87,99)" fill-rule="evenodd" />
<path d="
M 537.39 308.592
C 538.236 302.567 547.136 303.593 546.293 309.546
C 545.468 315.382 536.577 314.384 537.39 308.592 Z"
opacity="1" fill="rgb(55,152,154)" fill-rule="evenodd" />
<path d="
M 538.871 327.042
C 540.095 323.715 545.376 324.071 546.022 327.568
C 546.276 328.941 545.936 330.494 545.92 331.885
C 545.888 334.757 545.925 337.631 545.929 340.504
C 545.942 350.17 545.97 359.836 545.96 369.502
C 545.957 373.351 547.818 381.45 542.284 381.951
C 540.824 382.084 539.303 380.973 538.918 379.533
C 538.142 376.627 538.742 372.875 538.755 369.882
C 538.799 359.923 538.768 349.96 538.737 340
C 538.728 337.188 538.707 334.376 538.674 331.564
C 538.658 330.199 538.393 328.343 538.871 327.042 Z"
opacity="1" fill="rgb(57,149,151)" fill-rule="evenodd" />
<path d="
M 541.805 417.803
C 543.482 417.16 544.454 418.722 543.81 420.185
C 543.2 420.378 542.692 420.206 542.143 419.906
C 541.831 419.19 541.81 418.577 541.805 417.803 Z"
opacity="1" fill="rgb(75,76,82)" fill-rule="evenodd" />
<path d="
M 560.946 328.104
C 561.023 327.548 561.116 327.044 561.357 326.534
C 563.018 324.374 566.308 324.634 567.578 327.095
C 568.448 328.78 568.076 331.031 567.913 332.826
C 568.019 332.961 569.746 330.924 570.027 330.664
C 571.317 329.468 572.803 328.326 574.327 327.449
C 579.187 324.653 584.973 323.633 590.51 324.454
C 593.173 324.848 595.885 325.623 598.298 326.824
C 600.789 328.064 603.006 329.501 605.027 331.422
C 613.385 339.365 611.605 352.109 611.571 362.505
C 611.559 366.201 611.503 369.895 611.475 373.59
C 611.458 375.704 611.724 378.036 611.16 380.089
C 609.998 382.986 605.393 382.617 604.614 379.65
C 603.923 377.017 604.414 373.681 604.404 370.97
C 604.385 365.312 604.338 359.654 604.355 353.997
C 604.366 350.799 604.784 347.322 604.056 344.18
C 602.589 337.846 597.067 332.756 590.728 331.491
C 587.806 330.907 584.556 330.986 581.687 331.816
C 579.942 332.321 578.274 333.046 576.713 333.975
C 572.71 336.36 569.466 340.978 568.477 345.537
C 567.859 348.386 568.094 351.5 568.054 354.4
C 567.987 359.269 568.061 364.13 568.075 369
C 568.083 371.499 568.073 373.999 568.088 376.498
C 568.096 377.862 568.225 379.422 567.542 380.663
C 566.01 383.45 561.646 382.439 560.971 379.518
C 560.524 377.584 560.805 375.354 560.813 373.382
C 560.827 369.753 560.824 366.125 560.819 362.497
C 560.813 357.997 560.829 353.497 560.848 348.997
C 560.878 342.058 560.517 335.03 560.946 328.104 Z"
opacity="1" fill="rgb(53,150,152)" fill-rule="evenodd" />
<path d="
M 625.432 304.605
C 626.04 301.151 631.671 299.544 632.626 303.68
C 633.407 307.064 632.607 311.513 632.613 314.997
C 632.628 323.831 632.685 332.666 632.717 341.5
C 632.732 345.494 631.982 350.308 632.79 354.199
C 633.031 354.453 634.323 352.827 634.602 352.538
C 636.545 350.519 638.896 348.835 640.957 346.933
C 647.425 340.965 654.252 335.375 660.576 329.251
C 662.56 327.33 665.718 323.302 668.897 325.111
C 672.447 327.131 669.33 330.776 667.362 332.541
C 663.173 336.298 659.018 340.083 654.887 343.904
C 652.522 346.092 650.039 348.976 647.282 350.629
C 647.369 351.259 648.211 351.872 648.641 352.339
C 649.918 353.73 651.289 355.045 652.604 356.401
C 657.527 361.476 662.341 366.668 667.188 371.816
C 669.62 374.399 674.032 377.202 671.402 381.051
C 667.755 384.387 664.578 379.081 662.391 376.73
C 657.341 371.298 652.053 366.099 647.035 360.637
C 645.805 359.299 644.598 357.938 643.373 356.596
C 643.005 356.192 642.331 355.244 641.772 355.208
C 639.563 358.581 635.353 360.503 633.138 363.913
C 632.72 369.069 633.846 374.88 632.704 379.904
C 632.269 381.819 629.316 382.883 627.635 382.005
C 625.509 380.893 625.615 378.568 625.602 376.505
C 625.575 372.003 625.577 367.5 625.588 362.998
C 625.622 349.33 625.355 335.666 625.356 321.998
C 625.357 316.234 625.041 310.355 625.432 304.605 Z"
opacity="1" fill="rgb(52,151,153)" fill-rule="evenodd" />

</svg>